<?xml version="1.0" encoding="utf-8"?><!DOCTYPE svg PUBLIC "-//W3C//DTD SVG 1.1//EN" "http://www.w3.org/Graphics/SVG/1.1/DTD/svg11.dtd"><svg width="200" height="150" viewBox="0 0 200 150" xmlns="http://www.w3.org/2000/svg" xmlns:xlink="http://www.w3.org/1999/xlink"><view id="buyer" viewBox="50 0 50 50"/><svg width="50" height="50" viewBox="-2.5 -2.5 50 50" x="50"><title>briefcase alt</title><g fill="#EA9D39"><path d="M39.167 23.583a2.22 2.22 0 0 1-4.444 0v-.327H10.417v.327a2.22 2.22 0 0 1-4.444 0v-.327H-2.5v15.28c0 2.457 2.037 4.443 4.55 4.443h40.9c2.513 0 4.55-1.99 4.55-4.445v-15.28h-8.334v.328zM43.052 9.645h-9.58V6.26c0-2.448-1.994-4.438-4.447-4.438h-13.05a4.44 4.44 0 0 0-4.447 4.44v3.383h-9.58A4.446 4.446 0 0 0-2.5 14.09v6.944h8.472v-.792a2.22 2.22 0 0 1 4.444 0v.792h24.306v-.792a2.22 2.22 0 0 1 4.444 0v.792H47.5V14.09a4.443 4.443 0 0 0-4.448-4.445zm-27.077-.002l-.003-3.382c0 .002 13.053.003 13.053.003l.003 3.382-13.053-.002z"/></g></svg><view id="designer" viewBox="100 50 50 50"/><svg width="50" height="50" viewBox="-2.5 -2.5 50 50" x="100" y="50"><path fill="#BACA4A" d="M47.032 46.557H.015C3.64 44.922 11.36 41.36 12.88 39.784L45.804 6.91c1.053-1.05 1.58-2.394 1.58-3.854s-.586-2.86-1.58-3.854c-1.053-1.05-2.398-1.577-3.86-1.577a5.493 5.493 0 0 0-3.86 1.577L5.16 32.018C3.174 34.003-2.265 46.265-2.5 46.79v.293c0 .058.058.117.058.117.058.058.117.058.175.117.058 0 .117.058.175.058H47.03c.235 0 .47-.175.47-.467s-.234-.35-.468-.35z"/></svg><view id="doc" viewBox="0 50 50 50"/><svg width="50" height="50" viewBox="0 0 50 50" y="50"><path d="M40.618 10.397v9.382h2.577V9.405c0-.463-.198-.86-.528-1.19L33.947.422a1.795 1.795 0 0 0-1.124-.395H7.716c-.925 0-1.652.727-1.652 1.652v46.645c0 .925.727 1.652 1.652 1.652H41.61c.924 0 1.65-.727 1.65-1.652v-12.29H40.62V47.33H8.708V2.667h23.586v7.73h8.324z"/><path d="M29.454 25.882c-.156-.03-.47-.044-.94-.044h-.63v1.835h.716c.514 0 .86-.034 1.032-.1a.856.856 0 0 0 .408-.32.874.874 0 0 0 .148-.502c0-.234-.07-.428-.207-.58a.906.906 0 0 0-.526-.288zM36.167 26.204c-.158-.15-.36-.25-.604-.304-.182-.04-.54-.062-1.072-.062h-.585v4.283h.975c.365 0 .628-.02.79-.06.212-.054.388-.143.527-.27.14-.126.254-.335.342-.624.087-.29.13-.685.13-1.184 0-.5-.043-.884-.13-1.15-.09-.27-.213-.478-.373-.628z"/><path d="M45.308 21.585H24.095c-1.037 0-1.877.84-1.877 1.877v9.03c0 1.038.84 1.878 1.877 1.878h21.213c1.037 0 1.877-.84 1.877-1.877v-9.03c0-1.04-.84-1.878-1.877-1.878z"/><g fill="#FFF"><path d="M29.464 25.002c.45.148.815.42 1.094.814.223.32.375.664.457 1.036.08.37.12.725.12 1.062 0 .853-.17 1.575-.513 2.167-.465.798-1.182 1.198-2.15 1.198h-2.767v-6.414h2.766c.4.005.73.05.994.138zm-2.457.976v4.186h1.238c.633 0 1.075-.312 1.325-.936.137-.342.206-.75.206-1.223 0-.652-.103-1.154-.308-1.503-.205-.35-.612-.524-1.222-.524h-1.24zM37.08 30.708c-.483.498-1.184.748-2.1.748-.917 0-1.618-.25-2.103-.748-.65-.613-.975-1.495-.975-2.646 0-1.175.325-2.057.975-2.646.484-.5 1.186-.75 2.102-.75.916 0 1.616.25 2.1.75.648.59.972 1.47.972 2.646 0 1.15-.323 2.033-.97 2.646zm-.836-.976c.312-.392.468-.948.468-1.67 0-.72-.156-1.276-.468-1.67-.312-.392-.733-.59-1.265-.59-.53 0-.955.197-1.272.588s-.474.95-.474 1.67c0 .724.157 1.28.474 1.672s.74.587 1.27.587c.533 0 .954-.196 1.266-.588zM39.687 25.534c.517-.528 1.174-.792 1.972-.792 1.067 0 1.848.354 2.342 1.062.27.397.418.796.437 1.196H43.1c-.086-.308-.195-.54-.328-.696-.24-.278-.593-.418-1.062-.418-.478 0-.854.197-1.13.59s-.413.95-.413 1.67c0 .718.145 1.257.436 1.615.29.36.66.538 1.11.538.458 0 .81-.153 1.05-.46.134-.166.244-.414.332-.745h1.332c-.115.7-.408 1.268-.88 1.706-.473.437-1.077.656-1.815.656-.912 0-1.63-.297-2.152-.89-.522-.593-.783-1.408-.783-2.444 0-1.12.296-1.982.89-2.588z"/></g></svg><view id="dwg" viewBox="50 50 50 50"/><svg width="50" height="50" viewBox="-2.5 -2.5 50 50" x="50" y="50"><path d="M46.11 16.944h-4.166V7.222a1.39 1.39 0 0 0-.407-.982l-8.333-8.333a1.39 1.39 0 0 0-.982-.407H4.444a1.39 1.39 0 0 0-1.39 1.39v18.055H-1.11a1.39 1.39 0 0 0-1.39 1.39v19.443c0 .767.623 1.39 1.39 1.39h4.167v6.943c0 .768.622 1.39 1.39 1.39h36.11a1.39 1.39 0 0 0 1.39-1.39v-6.943h4.166a1.39 1.39 0 0 0 1.39-1.39V18.334a1.39 1.39 0 0 0-1.39-1.39zM33.61 2.242l3.593 3.592H33.61V2.242zM5.834.278h25V8.61h8.333v8.334H5.833V.278zm33.334 44.444H5.833v-5.556h33.333v5.556zm5.555-8.333H.278V19.72h44.444V36.39z"/><path d="M15.556 29.444v-2.778A4.17 4.17 0 0 0 11.39 22.5H7.22v11.11h4.167a4.17 4.17 0 0 0 4.166-4.166zM10 25.278h1.39c.765 0 1.388.623 1.388 1.39v2.777a1.39 1.39 0 0 1-1.39 1.39H10v-5.557zM20.417 33.61a1.39 1.39 0 0 0 1.11-.555 10.89 10.89 0 0 0 1.038-1.693c.2.38.412.748.65 1.096a1.39 1.39 0 0 0 1.368 1.153c.428 0 .844-.198 1.11-.555 1.523-2.03 2.362-4.708 2.362-7.54V22.5h-2.778v3.016c0 1.296-.228 2.57-.65 3.71a10.75 10.75 0 0 1-.74-3.948v-1.39H21.11v1.628c0 1.342-.244 2.66-.694 3.832-.45-1.17-.694-2.49-.694-3.832V22.5h-2.778v3.016c0 2.832.84 5.51 2.36 7.54.264.35.675.555 1.113.555zM33.61 33.61h2.78a1.39 1.39 0 0 0 1.388-1.388v-4.167a1.39 1.39 0 0 0-1.39-1.39h-2.777v2.78H35v1.388h-1.39a1.39 1.39 0 0 1-1.388-1.39v-2.777c0-.766.623-1.39 1.39-1.39h2.777V22.5h-2.78a4.17 4.17 0 0 0-4.166 4.167v2.778a4.17 4.17 0 0 0 4.167 4.166z"/></svg><view id="dxf" viewBox="100 0 50 50"/><svg width="50" height="50" viewBox="-2.5 -7 50 50" x="100"><path d="M46.3 12.4h-4.2V2.6c0-.37-.148-.727-.41-.99l-8.4-8.4a1.404 1.404 0 0 0-.99-.41h-28a1.4 1.4 0 0 0-1.4 1.4v18.2h-4.2a1.4 1.4 0 0 0-1.4 1.4v19.6a1.4 1.4 0 0 0 1.4 1.4h4.2v7a1.4 1.4 0 0 0 1.4 1.4h36.4a1.4 1.4 0 0 0 1.4-1.4v-7h4.2a1.4 1.4 0 0 0 1.4-1.4V13.8a1.4 1.4 0 0 0-1.4-1.4zM33.7-2.42l3.62 3.62H33.7v-3.62zM5.7-4.4h25.2V4h8.4v8.4H5.7V-4.4zm33.6 44.8H5.7v-5.6h33.6v5.6zm5.6-8.4H.1V15.2h44.8V32z"/><path d="M16.9 25v-2.8c0-2.316-1.884-4.2-4.2-4.2H8.5v11.2h4.2c2.316 0 4.2-1.884 4.2-4.2zm-5.6-4.2h1.4c.772 0 1.4.628 1.4 1.4V25c0 .772-.628 1.4-1.4 1.4h-1.4v-5.6zM21.1 27.8c0-1.064.53-2.03 1.4-2.605a3.11 3.11 0 0 1 1.4 2.605v1.4h2.8v-1.4a5.89 5.89 0 0 0-1.754-4.2 5.89 5.89 0 0 0 1.754-4.2V18h-2.8v1.4a3.11 3.11 0 0 1-1.4 2.605 3.11 3.11 0 0 1-1.4-2.605V18h-2.8v1.4a5.89 5.89 0 0 0 1.754 4.2 5.89 5.89 0 0 0-1.754 4.2v1.4h2.8v-1.4zM30.9 25h4.2v-2.8h-4.2v-1.4h5.6V18h-7a1.4 1.4 0 0 0-1.4 1.4v9.8h2.8V25z"/></svg><view id="fitter" viewBox="0 0 50 50"/><svg width="50" height="50" viewBox="-2.5 -2.5 50 50"><path fill="#6DC5C8" d="M45.48 6.762l-6.304 6.328-6.15-1.116-1.104-6.15 6.305-6.327C36.81-1.92 34.79-2.568 33.295-2.49c-1.507.078-4.72.926-7.21 3.57-2.41 2.545-4.943 7.288-2.7 12.556.268.636.57 1.473-.324 2.366-.903.893-23.993 22.633-23.993 22.633-2.165 1.864-2.01 5.312-.01 7.32 2.03 2 5.456 2.12 7.32-.032 0 0 21.56-22.967 22.62-24.005.95-.926 1.798-.614 2.367-.324 3.973 2.053 9.63.268 12.566-2.667 2.935-2.935 3.47-5.77 3.56-7.22.09-1.44-.413-3.35-2.01-4.945zM4.124 43.4a1.805 1.805 0 0 1-2.533 0 1.805 1.805 0 0 1 0-2.533 1.805 1.805 0 0 1 2.533 0c.69.703.69 1.84 0 2.533z"/></svg><view id="headquarter" viewBox="0 100 50 50"/><svg width="50" height="50" viewBox="0 0 50 50" y="100"><path fill="#DC002E" d="M48.17 8.9a1.82 1.82 0 0 0-.724.155l-12.42 5.52V10.7a1.816 1.816 0 0 0-2.532-1.645l-12.42 5.5V10.7a1.815 1.815 0 0 0-1.814-1.815h-.038c-.236.012-.467.07-.68.17L1.076 16.352c-.65.29-1.072.932-1.077 1.644V39.3c0 1.002.81 1.815 1.814 1.815h46.37A1.816 1.816 0 0 0 50 39.3V10.7a1.82 1.82 0 0 0-1.83-1.8zM3.85 21.35c-.005-.64.28-.9.91-.893 1.765.015 3.53.012 5.294.002.587-.004.875.24.872.846-.01 1.792-.01 3.585 0 5.377.003.6-.276.86-.867.85-.87-.012-1.737-.003-2.606-.003-.896 0-1.792-.014-2.688.005-.63.013-.92-.246-.915-.89.014-1.765.014-3.53 0-5.294zm6.19 16.112c-1.763-.014-3.528-.014-5.292 0-.64.005-.904-.274-.9-.907a333.4 333.4 0 0 0 .002-5.292c-.005-.653.307-.89.928-.877.896.02 1.792.005 2.688.005.868 0 1.737.01 2.604-.002.597-.008.858.27.855.864-.01 1.764-.014 3.528.002 5.293.005.624-.24.922-.886.917zm11.654-.837c.003.61-.3.845-.882.836-.868-.013-1.736-.003-2.604-.003-.924 0-1.848-.004-2.772 0-.554.004-.813-.266-.812-.816.004-1.82.004-3.64 0-5.46 0-.57.294-.794.838-.792 1.792.006 3.584.008 5.377 0 .596-.004.86.266.856.86-.01 1.792-.01 3.585-.002 5.377zm.166-9.892c0 .565-.286.8-.832.798a602.34 602.34 0 0 0-5.377.003c-.594.003-.864-.26-.86-.856.008-1.792.008-3.585 0-5.377-.004-.607.29-.85.875-.842.896.013 1.792.004 2.688.004s1.792.004 2.688 0c.55-.004.82.255.82.81-.003 1.82-.003 3.64 0 5.46zm10.068 10.73c-1.792-.014-3.584-.01-5.376-.004-.55 0-.824-.25-.823-.808.003-1.82.003-3.64 0-5.46-.003-.563.278-.806.826-.804 1.792.005 3.585.008 5.376-.002.592-.003.875.252.867.85-.012.897-.004 1.793-.004 2.69 0 .867-.015 1.735.005 2.603.016.618-.217.936-.872.932zm-.025-9.93a321.905 321.905 0 0 0-5.292 0c-.646.006-.89-.292-.886-.918.015-1.764.012-3.528.002-5.293-.003-.593.257-.87.855-.863.897.01 1.793.002 2.69.002.867 0 1.735.015 2.603-.005.62-.014.933.225.928.877a333.53 333.53 0 0 0 .002 5.293c.005.633-.26.912-.9.907z"/></svg><view id="pdf" viewBox="50 100 50 50"/><svg width="50" height="50" viewBox="-2.5 -7 50 50" x="50" y="100"><path d="M36.493 3.4v9.38h2.577V2.41c0-.463-.198-.86-.528-1.19l-8.72-7.795a1.795 1.795 0 0 0-1.124-.396H3.59c-.924 0-1.65.727-1.65 1.652v46.644c0 .925.726 1.652 1.65 1.652h33.894c.925 0 1.652-.727 1.652-1.652v-12.29h-2.643V40.33H4.583V-4.33h23.586V3.4h8.323z"/><path d="M25.33 18.884c-.157-.03-.47-.044-.94-.044h-.63v1.835h.715c.514 0 .86-.034 1.032-.1a.856.856 0 0 0 .408-.32.874.874 0 0 0 .148-.502c0-.235-.07-.43-.207-.582a.906.906 0 0 0-.527-.286zM32.042 19.206c-.158-.15-.36-.25-.604-.304-.182-.04-.54-.062-1.072-.062h-.586v4.283h.975c.365 0 .628-.02.79-.062.212-.052.388-.14.527-.268.14-.126.254-.335.342-.624.088-.29.132-.685.132-1.184 0-.5-.044-.884-.132-1.15-.09-.27-.212-.478-.372-.628z"/><path d="M41.183 14.587H19.97c-1.037 0-1.877.84-1.877 1.877v9.03c0 1.038.84 1.878 1.877 1.878h21.213c1.037 0 1.877-.84 1.877-1.877v-9.03c0-1.04-.84-1.878-1.877-1.878zm-13.992 6.15c-.143.27-.326.482-.548.636a1.883 1.883 0 0 1-.677.306c-.312.06-.763.092-1.354.092h-.85v2.44h-1.306v-6.467h2.095c.793 0 1.31.032 1.552.097.37.097.68.308.93.633s.376.745.376 1.26c0 .396-.073.73-.217 1zm6.506 1.68c-.162.47-.393.85-.692 1.14-.226.222-.532.394-.918.517-.288.09-.673.137-1.156.137h-2.457v-6.465h2.386c.537 0 .947.04 1.23.123.38.112.704.31.975.596.27.285.477.634.617 1.048.14.413.212.923.212 1.528 0 .532-.065.99-.198 1.376zm5.376-3.578h-3.127v1.53h2.7v1.093h-2.7v2.748H34.64v-6.464h4.432v1.093z"/></svg><view id="scroll" viewBox="100 100 50 50"/><svg width="50" height="50" viewBox="-2.5 -2.5 50 50" x="100" y="100"><circle fill="#FFF" cx="22.5" cy="6.5" r="1.5"/><path fill="#FFF" d="M22.5-2.583a8.456 8.456 0 0 0-8.455 8.456v14.09a8.456 8.456 0 0 0 16.91 0V5.873A8.456 8.456 0 0 0 22.5-2.583zm7.328 22.545c0 4.04-3.287 7.33-7.328 7.33s-7.328-3.29-7.328-7.33V5.872c0-4.04 3.287-7.328 7.328-7.328s7.328 3.288 7.328 7.33V19.96zM29.993 30.838L22.5 38.33l-7.493-7.492a.564.564 0 0 0-.797.797l7.89 7.89a.562.562 0 0 0 .8 0l7.89-7.89a.564.564 0 1 0-.797-.797z"/><path fill="#FFF" d="M29.993 38.73L22.5 46.223l-7.493-7.493a.564.564 0 0 0-.797.797l7.89 7.89a.562.562 0 0 0 .8 0l7.89-7.89a.564.564 0 1 0-.797-.797z"/></svg><view id="scroll-dark" viewBox="150 0 50 50"/><svg width="50" height="50" viewBox="0 0 50 50" x="150"><circle cx="25" cy="8.917" r="1.5"/><path d="M25-.166a8.456 8.456 0 0 0-8.455 8.456v14.09a8.456 8.456 0 0 0 16.91 0V8.29A8.456 8.456 0 0 0 25-.166zm7.328 22.545c0 4.04-3.287 7.328-7.328 7.328s-7.328-3.288-7.328-7.33V8.29C17.672 4.25 20.96.96 25 .96s7.328 3.29 7.328 7.33v14.09zM32.493 33.255L25 40.748l-7.493-7.493a.564.564 0 0 0-.797.797l7.89 7.89a.562.562 0 0 0 .8 0l7.89-7.89a.564.564 0 1 0-.797-.797z"/><path d="M32.493 41.147L25 48.64l-7.493-7.493a.564.564 0 0 0-.797.797l7.89 7.89a.562.562 0 0 0 .8 0l7.89-7.89a.564.564 0 1 0-.797-.797z"/></svg><view id="zip" viewBox="150 50 50 50"/><svg width="50" height="50" viewBox="0 0 50 50" x="150" y="50"><path d="M40.65 10.397v9.382h2.576V9.405c0-.463-.198-.86-.528-1.19L33.978.422a1.795 1.795 0 0 0-1.124-.395H7.747c-.925 0-1.652.727-1.652 1.652v46.645c0 .925.727 1.652 1.652 1.652H41.64c.925 0 1.652-.727 1.652-1.652v-12.29H40.65V47.33H8.737V2.667h23.587v7.73h8.324z"/><path d="M29.485 25.882c-.156-.03-.47-.044-.94-.044h-.63v1.835h.716c.515 0 .86-.034 1.033-.1a.856.856 0 0 0 .408-.32.874.874 0 0 0 .15-.502c0-.234-.07-.428-.208-.58a.906.906 0 0 0-.527-.288zM36.198 26.204c-.158-.15-.36-.25-.604-.304-.182-.04-.54-.062-1.072-.062h-.586v4.283h.975c.366 0 .63-.02.79-.06.213-.054.39-.143.528-.27.14-.126.254-.335.342-.624.088-.29.132-.685.132-1.184 0-.5-.044-.884-.132-1.15-.09-.27-.212-.478-.372-.628z"/><path d="M45.34 21.585H24.125c-1.037 0-1.877.84-1.877 1.877v9.03c0 1.038.84 1.878 1.876 1.878H45.34c1.036 0 1.876-.84 1.876-1.877v-9.03c0-1.04-.84-1.878-1.877-1.878z"/><g fill="#FFF"><path d="M28.335 30.146L31.615 26h-3.197v-1.137h4.86v1.075l-3.32 4.208h3.33v1.13h-4.953v-1.13zM35.454 31.278h-1.33v-6.414h1.33v6.414zM41.013 28.5c-.375.314-.91.47-1.608.47H38.07v2.307h-1.332v-6.414h2.754c.635 0 1.142.166 1.52.496.377.33.565.842.565 1.535 0 .758-.188 1.293-.564 1.606zm-1.023-2.31c-.17-.14-.407-.212-.713-.212H38.07v1.888h1.208c.306 0 .543-.077.713-.23s.256-.397.256-.73-.086-.573-.256-.715z"/></g></svg></svg>